<svg width="44" height="52" viewBox="0 0 44 52" fill="none" xmlns="http://www.w3.org/2000/svg">
  <path d="M22 3L4 11V23C4 36.5 22 48 22 48C22 48 40 36.5 40 23V11L22 3Z" fill="#1B4332" stroke="#D4A843" stroke-width="1.2"/>
  <path d="M22 16C18 16 15 19 15 23" stroke="#D4A843" stroke-width="1.8" stroke-linecap="round"/>
  <path d="M22 13C16 13 12 17.5 12 23.5" stroke="#D4A843" stroke-width="1.8" stroke-linecap="round" opacity="0.5"/>
  <path d="M22 19C20 19 18 20.5 18 23.5V29" stroke="#D4A843" stroke-width="1.8" stroke-linecap="round"/>
  <path d="M22 16C26 16 29 19 29 23V27" stroke="#D4A843" stroke-width="1.8" stroke-linecap="round"/>
  <path d="M22 13C28 13 32 17.5 32 23.5V25" stroke="#D4A843" stroke-width="1.8" stroke-linecap="round" opacity="0.5"/>
  <path d="M22 23V33" stroke="#D4A843" stroke-width="1.8" stroke-linecap="round"/>
  <path d="M26 23V31" stroke="#D4A843" stroke-width="1.8" stroke-linecap="round" opacity="0.5"/>
</svg>
